<svg xmlns="http://www.w3.org/2000/svg" width="16" height="16" fill="currentColor"
	 viewBox="0 0 16 16">
<path d="M11.5,7h3.9c0.1,0,0.2,0.1,0.2,0.3c0,0.1,0,0.1-0.1,0.2l-2,2.4c-0.1,0.1-0.2,0.1-0.4,0c0,0,0,0,0,0l-2-2.4
	c-0.1-0.1-0.1-0.3,0-0.4C11.4,7,11.5,7,11.5,7z M0.5,9h3.9c0.1,0,0.2-0.1,0.2-0.3c0-0.1,0-0.1-0.1-0.2l-2-2.4
	c-0.1-0.1-0.2-0.1-0.4,0c0,0,0,0,0,0l-2,2.4c-0.1,0.1-0.1,0.3,0,0.4C0.4,9,0.5,9,0.5,9z"/>
<path d="M8,3C6.4,3,5.1,3.7,4.1,4.8C4,5,3.7,5.1,3.4,4.9C3.2,4.7,3.2,4.4,3.4,4.2c0,0,0,0,0,0c2.1-2.6,5.9-2.9,8.4-0.8
	c1.1,0.9,1.9,2.2,2.1,3.6h-1C12.4,4.7,10.4,3,8,3z M3.1,9c0.6,2.7,3.2,4.5,5.9,3.9c1.1-0.2,2.1-0.8,2.9-1.7c0.2-0.2,0.5-0.3,0.7-0.1
	c0.2,0.2,0.3,0.5,0.1,0.7c0,0,0,0,0,0c-2.1,2.6-5.9,2.9-8.4,0.8C3.1,11.7,2.3,10.4,2.1,9H3.1z"/>
<polygon points="8.5,10.1 8.5,5.9 7.8,5.9 6.8,6.6 6.8,7.3 7.7,6.6 7.8,6.6 7.8,10.1 8.5,10.1 "/>
</svg>
