<svg xmlns="http://www.w3.org/2000/svg" viewBox="0 0 128 128"><path d="M26.3,1.05a7,7,0,0,1,7.36,0,18.05,18.05,0,0,1,4.56,3.68L56.11,21.22h12.8L86.8,4.73a18,18,0,0,1,4.56-3.68A28.66,28.66,0,0,1,96.79.61,10.31,10.31,0,0,1,101,1.75a10.62,10.62,0,0,1,4.56,6.84,8.44,8.44,0,0,1-2.28,6l-6,6h11.22a18.75,18.75,0,0,1,13.5,6,21.17,21.17,0,0,1,4.38,6.31A19,19,0,0,1,128,40.68V94.51q0,2.28-.09,4.21a20.47,20.47,0,0,1-.61,4,33.11,33.11,0,0,1-3.42,7.63,18.27,18.27,0,0,1-5.7,5.88,13.62,13.62,0,0,1-4.82,2.28,22,22,0,0,1-5.52.7H24q-2.28,0-4.21-.09a20.45,20.45,0,0,1-4-.61,21.35,21.35,0,0,1-7.28-3.42A19.85,19.85,0,0,1,3,108.71,15.65,15.65,0,0,1,.7,103.8,21,21,0,0,1,0,98.37V37A21.4,21.4,0,0,1,6.31,25.34a17.17,17.17,0,0,1,11.75-4.82H30a13.41,13.41,0,0,1-2.28-2,18.85,18.85,0,0,0-3-2.54,9.75,9.75,0,0,1-2.28-3.42,11,11,0,0,1-.7-3.94,16,16,0,0,1,1.67-4.3A9.73,9.73,0,0,1,26.3,1.05ZM24.72,37.7a9.7,9.7,0,0,0-7.54,6.66V93.11a13.33,13.33,0,0,0,1.67,6,8,8,0,0,0,4.47,3.68,8.31,8.31,0,0,0,1.84.7,4.86,4.86,0,0,0,1.84,0h74a9.5,9.5,0,0,0,5.08-1.4,15,15,0,0,0,4-3.68,14.17,14.17,0,0,0,.61-3.07q.09-1.32.09-3.07V46.64a11.11,11.11,0,0,0-6-6.66A4.93,4.93,0,0,0,102,38a14.49,14.49,0,0,0-3.16-.35H24.72Zm14.2,14.9a12.55,12.55,0,0,1,6.84,2.28A6.86,6.86,0,0,1,48,58.13a13,13,0,0,1,.7,4.3v9.64a8.06,8.06,0,0,1-2.28,6,14.78,14.78,0,0,1-3.86,2.81,8.9,8.9,0,0,1-4.38,1,8.33,8.33,0,0,1-4.29-1.4,11.68,11.68,0,0,1-3.24-3.07,22.63,22.63,0,0,1-1.4-6.66V60.84a11.88,11.88,0,0,1,3.42-5.44A12.53,12.53,0,0,1,38.93,52.6Zm48.74,0a11.32,11.32,0,0,1,3.59.61,9,9,0,0,1,3.07,1.67A6.9,6.9,0,0,1,96.61,58a10.77,10.77,0,0,1,.7,3.68v9.65a32.72,32.72,0,0,1-.18,3.42A6.35,6.35,0,0,1,95.74,78a7.32,7.32,0,0,1-3.07,3.42,8.67,8.67,0,0,1-8.59,0A8.36,8.36,0,0,1,80.83,78a8.11,8.11,0,0,1-1.31-3.24,13.28,13.28,0,0,1-.09-3.42V61.72a8.27,8.27,0,0,1,2.37-6,10.93,10.93,0,0,1,5.87-3.16Z"/></svg>