<svg id="图层_1" data-name="图层 1" xmlns="http://www.w3.org/2000/svg" viewBox="0 0 128 128"><defs><style>.cls-1{fill:#661115;}</style></defs><title>loading</title><path class="cls-1" d="M64,.55A63.45,63.45,0,1,0,127.45,64,63.45,63.45,0,0,0,64,.55ZM62.7,16.3,63,28.42c-.91,0-1.8.09-2.69.18l-1.44-12C60.15,16.43,61.42,16.34,62.7,16.3ZM55.64,17,57.9,28.93c-.7.12-1.39.27-2.07.43L52.91,17.6C53.81,17.38,54.72,17.18,55.64,17Zm-5.16,1.24L54,29.85c-.34.1-.69.18-1,.29L49.22,18.61C49.64,18.48,50.06,18.38,50.48,18.25ZM64,111.73A47.74,47.74,0,0,1,17.6,75.19,6,6,0,0,1,23,67.8h0a6.06,6.06,0,0,1,6.44,4.61A35.61,35.61,0,1,0,67.82,28.6c-.9-.1-1.79-.14-2.68-.17l.39-12.11c1.38,0,2.77.13,4.17.29A47.73,47.73,0,0,1,64,111.73Z"/></svg>