<svg xmlns="http://www.w3.org/2000/svg" viewBox="0 0 1024 1024"><path d="M535.66,237c-60.54-.12-135.51,20-181.74,52.62V655.11c42.14,20.61,105.94,35.19,181.74,35.15,67.93,0,126.84-25.07,167.34-64.78h0c40.5-40,63.26-92.28,63.5-155.69C766.31,404.69,745,348.7,706,306.56,667,264.68,609.23,237.06,535.66,237Z"/><path d="M816.66,2.25H207.34C94.07,2.25,2.25,94.07,2.25,207.34V816.66c0,113.27,91.82,205.09,205.09,205.09H816.66c113.27,0,205.09-91.82,205.09-205.09V207.34C1021.75,94.07,929.93,2.25,816.66,2.25Zm-49,661.68c-58.57,46.2-137.32,71.78-223.85,71.78-98.5,0-189.87-35.63-189.87-35.63V815c16.88,4.91,44.6,15.44,27,32.91H247.63c-17.42-17.31,8.14-27.5,27.48-32.91V327.84c-44.85,34.2-67.81,63.85-79.55,85.87,13.59,43.08-12.09,40.94-12.09,40.94l-46.38-73.14s164.63-185.57,406.7-185.58c92.87,0,172.76,28.59,229.84,78.12h0c57.11,49.33,90.28,120,90.1,197C864,549.42,826.2,618,767.65,663.93Z"/></svg>